<svg width="9" height="7" viewBox="0 0 9 7" fill="none" xmlns="http://www.w3.org/2000/svg">
<path d="M8.83303 5.86419C8.94437 5.7529 9 5.62102 9 5.4687C9 5.31635 8.94437 5.18447 8.83303 5.07319L4.89553 1.13572C4.78418 1.02444 4.6524 0.96875 4.50005 0.96875C4.3477 0.96875 4.21582 1.02444 4.10456 1.13572L0.167067 5.07319C0.0557211 5.18444 -2.78466e-05 5.31632 -2.78533e-05 5.4687C-2.78599e-05 5.62102 0.0557211 5.7529 0.167067 5.86418C0.278321 5.97553 0.4102 6.03125 0.56255 6.03125L8.43754 6.03125C8.58989 6.03122 8.72165 5.97553 8.83303 5.86419Z" fill="#A5A5A5"/>
</svg>
