<svg width="168" height="61" viewBox="0 0 168 61" fill="none" xmlns="http://www.w3.org/2000/svg">
<path d="M0.939453 60H8.24609V1.21094H0.939453V60ZM12.4453 60.084H19.416C25.9668 60.084 30.8659 57.7044 34.1133 52.9453C36.0729 50.0339 37.0527 46.7585 37.0527 43.1191C36.9967 37.7441 35.0091 33.5449 31.0898 30.5215C34.2812 28.1699 36.1569 24.7546 36.7168 20.2754C36.8288 19.4915 36.8848 18.7357 36.8848 18.0078C36.8848 12.7448 35.0651 8.51758 31.4258 5.32617C28.2904 2.58268 24.2311 1.21094 19.248 1.21094H12.4453V7.76172H18.4082C23.1673 7.76172 26.4987 9.69336 28.4023 13.5566C29.1862 15.1243 29.5781 16.748 29.5781 18.4277C29.5781 23.2988 27.2546 26.1543 22.6074 26.9941C21.7676 27.1621 20.8717 27.2461 19.9199 27.2461H12.4453V33.7969H19.9199C25.1829 33.7969 28.3464 35.8685 29.4102 40.0117C29.6341 40.8516 29.7461 41.7474 29.7461 42.6992C29.7461 46.6185 28.1504 49.5859 24.959 51.6016C22.7754 52.8893 20.0879 53.5332 16.8965 53.5332H12.4453V60.084ZM43.0996 43.791V1.21094H50.4902V43.791C50.4902 47.4863 52.4219 50.2578 56.2852 52.1055C57.6849 52.7773 58.8607 53.1133 59.8125 53.1133V60.4199C56.5651 60.4199 53.3177 59.2721 50.0703 56.9766C45.4792 53.6732 43.1556 49.278 43.0996 43.791ZM64.0117 60.4199V53.1133C65.8594 53.1133 67.763 52.3574 69.7227 50.8457C72.0742 48.998 73.278 46.6465 73.334 43.791V1.21094H80.6406V43.791C80.6406 50.0618 77.8411 54.793 72.2422 57.9844C69.3867 59.6081 66.6432 60.4199 64.0117 60.4199ZM87.2754 60V1.21094H94.582V60H87.2754ZM98.7812 34.5527V27.918H106.424C112.359 27.806 115.354 24.5026 115.41 18.0078C115.298 11.3451 111.911 7.98568 105.248 7.92969H98.7812V1.21094H106.592C114.71 1.49089 119.721 4.87826 121.625 11.373C122.185 13.2207 122.465 15.2363 122.465 17.4199C122.409 23.9147 120.477 28.4779 116.67 31.1094C119.917 32.8451 121.877 36.0085 122.549 40.5996C122.605 40.9915 122.661 41.3835 122.717 41.7754L124.145 60H117.258L115.998 45.0508C115.55 40.2357 114.318 37.1562 112.303 35.8125C110.959 34.9167 109.139 34.4967 106.844 34.5527H98.7812ZM129.604 43.623V15.9922C129.604 13.0247 130.863 10.0013 133.383 6.92188C136.742 2.89062 140.997 0.847005 146.148 0.791016V8.09766C142.733 8.09766 140.074 9.83333 138.17 13.3047C137.386 14.8164 136.994 16.1602 136.994 17.3359V43.623C136.994 47.1504 138.73 49.8939 142.201 51.8535C143.657 52.6934 144.945 53.1133 146.064 53.1133V60.4199C142.873 60.4199 139.682 59.2721 136.49 56.9766C131.955 53.6172 129.66 49.166 129.604 43.623ZM150.684 60.4199V53.1133C152.643 53.1133 154.631 52.2454 156.646 50.5098C158.774 48.6061 159.866 46.3105 159.922 43.623V17.3359C159.922 15.1523 159.026 13.0527 157.234 11.0371C155.387 9.13346 153.203 8.15365 150.684 8.09766V0.791016C156.339 0.791016 160.874 3.22656 164.289 8.09766C166.249 10.8971 167.229 13.5286 167.229 15.9922V43.623C167.229 49.8379 164.457 54.597 158.914 57.9004C156.003 59.5801 153.259 60.4199 150.684 60.4199Z" fill="#FF0000"/>
</svg>
