<svg width="136" height="50" viewBox="0 0 136 50" fill="none" xmlns="http://www.w3.org/2000/svg">
<path d="M0.392578 49H6.33984V1.14844H0.392578V49ZM9.75781 49.0684H15.4316C20.7637 49.0684 24.7513 47.1315 27.3945 43.2578C28.9896 40.888 29.7871 38.222 29.7871 35.2598C29.7415 30.8848 28.1237 27.4668 24.9336 25.0059C27.5312 23.0918 29.0579 20.3118 29.5137 16.666C29.6048 16.028 29.6504 15.4128 29.6504 14.8203C29.6504 10.5365 28.1693 7.0957 25.207 4.49805C22.6549 2.26497 19.3509 1.14844 15.2949 1.14844H9.75781V6.48047H14.6113C18.485 6.48047 21.1966 8.05273 22.7461 11.1973C23.3841 12.4733 23.7031 13.7949 23.7031 15.1621C23.7031 19.127 21.8118 21.4512 18.0293 22.1348C17.3457 22.2715 16.6165 22.3398 15.8418 22.3398H9.75781V27.6719H15.8418C20.1257 27.6719 22.7005 29.3581 23.5664 32.7305C23.7487 33.4141 23.8398 34.1432 23.8398 34.918C23.8398 38.1081 22.541 40.5234 19.9434 42.1641C18.166 43.2122 15.9785 43.7363 13.3809 43.7363H9.75781V49.0684ZM34.709 35.8066V1.14844H40.7246V35.8066C40.7246 38.8145 42.2969 41.0703 45.4414 42.5742C46.5807 43.1211 47.5378 43.3945 48.3125 43.3945V49.3418C45.6693 49.3418 43.026 48.4076 40.3828 46.5391C36.6458 43.8503 34.7546 40.2728 34.709 35.8066ZM51.7305 49.3418V43.3945C53.2344 43.3945 54.7839 42.7793 56.3789 41.5488C58.293 40.0449 59.2728 38.1309 59.3184 35.8066V1.14844H65.2656V35.8066C65.2656 40.9108 62.987 44.7617 58.4297 47.3594C56.1055 48.681 53.8724 49.3418 51.7305 49.3418ZM70.666 49V1.14844H76.6133V49H70.666ZM80.0312 28.2871V22.8867H86.252C91.0827 22.7956 93.5208 20.1068 93.5664 14.8203C93.4753 9.39714 90.7181 6.66276 85.2949 6.61719H80.0312V1.14844H86.3887C92.9967 1.3763 97.0755 4.13346 98.625 9.41992C99.0807 10.9238 99.3086 12.5645 99.3086 14.3418C99.263 19.6283 97.6908 23.3424 94.5918 25.4844C97.235 26.8971 98.8301 29.472 99.377 33.209C99.4225 33.528 99.4681 33.847 99.5137 34.166L100.676 49H95.0703L94.0449 36.832C93.6803 32.9128 92.6777 30.4062 91.0371 29.3125C89.9434 28.5833 88.4622 28.2415 86.5938 28.2871H80.0312ZM105.119 35.6699V13.1797C105.119 10.7643 106.145 8.30339 108.195 5.79688C110.93 2.51562 114.393 0.852214 118.586 0.806641V6.75391C115.806 6.75391 113.641 8.16667 112.092 10.9922C111.454 12.2227 111.135 13.3164 111.135 14.2734V35.6699C111.135 38.541 112.548 40.7741 115.373 42.3691C116.558 43.0527 117.606 43.3945 118.518 43.3945V49.3418C115.92 49.3418 113.322 48.4076 110.725 46.5391C107.033 43.8047 105.165 40.1816 105.119 35.6699ZM122.277 49.3418V43.3945C123.872 43.3945 125.49 42.6882 127.131 41.2754C128.863 39.7259 129.751 37.8574 129.797 35.6699V14.2734C129.797 12.4961 129.068 10.7871 127.609 9.14648C126.105 7.59701 124.328 6.79948 122.277 6.75391V0.806641C126.88 0.806641 130.572 2.78906 133.352 6.75391C134.947 9.03255 135.744 11.1745 135.744 13.1797V35.6699C135.744 40.7285 133.488 44.6022 128.977 47.291C126.607 48.6582 124.374 49.3418 122.277 49.3418Z" fill="#FF0000"/>
</svg>
